<svg xmlns="http://www.w3.org/2000/svg" viewBox="0 0 400 400" width="400" height="400">
  <defs>
    <linearGradient id="heroGradient" x1="0%" y1="0%" x2="100%" y2="100%">
      <stop offset="0%" style="stop-color:#8B5CF6;stop-opacity:1" />
      <stop offset="50%" style="stop-color:#A78BFA;stop-opacity:1" />
      <stop offset="100%" style="stop-color:#EC4899;stop-opacity:1" />
    </linearGradient>
    <linearGradient id="accentGradient" x1="0%" y1="0%" x2="100%" y2="0%">
      <stop offset="0%" style="stop-color:#7C3AED;stop-opacity:0.3" />
      <stop offset="100%" style="stop-color:#DB2777;stop-opacity:0.3" />
    </linearGradient>
  </defs>

  <!-- Background circles -->
  <circle cx="200" cy="200" r="180" fill="url(#accentGradient)" opacity="0.2" />
  <circle cx="200" cy="200" r="140" fill="url(#accentGradient)" opacity="0.3" />

  <!-- Main network graph -->
  <g stroke="url(#heroGradient)" stroke-width="2" fill="none" opacity="0.4">
    <!-- Outer connections -->
    <line x1="200" y1="80" x2="280" y2="140" />
    <line x1="280" y1="140" x2="320" y2="220" />
    <line x1="320" y1="220" x2="280" y2="300" />
    <line x1="280" y1="300" x2="200" y2="340" />
    <line x1="200" y1="340" x2="120" y2="300" />
    <line x1="120" y1="300" x2="80" y2="220" />
    <line x1="80" y1="220" x2="120" y2="140" />
    <line x1="120" y1="140" x2="200" y2="80" />

    <!-- Inner connections to center -->
    <line x1="200" y1="80" x2="200" y2="200" />
    <line x1="280" y1="140" x2="200" y2="200" />
    <line x1="320" y1="220" x2="200" y2="200" />
    <line x1="280" y1="300" x2="200" y2="200" />
    <line x1="200" y1="340" x2="200" y2="200" />
    <line x1="120" y1="300" x2="200" y2="200" />
    <line x1="80" y1="220" x2="200" y2="200" />
    <line x1="120" y1="140" x2="200" y2="200" />
  </g>

  <!-- Nodes -->
  <g fill="url(#heroGradient)">
    <!-- Outer nodes -->
    <circle cx="200" cy="80" r="8" />
    <circle cx="280" cy="140" r="8" />
    <circle cx="320" cy="220" r="8" />
    <circle cx="280" cy="300" r="8" />
    <circle cx="200" cy="340" r="8" />
    <circle cx="120" cy="300" r="8" />
    <circle cx="80" cy="220" r="8" />
    <circle cx="120" cy="140" r="8" />

    <!-- Center node (larger) -->
    <circle cx="200" cy="200" r="16" />
  </g>

  <!-- Inner rings -->
  <g fill="url(#heroGradient)" opacity="0.6">
    <circle cx="200" cy="140" r="6" />
    <circle cx="260" cy="200" r="6" />
    <circle cx="200" cy="260" r="6" />
    <circle cx="140" cy="200" r="6" />
  </g>

  <!-- Connection lines for inner ring -->
  <g stroke="url(#heroGradient)" stroke-width="1.5" fill="none" opacity="0.3">
    <line x1="200" y1="140" x2="260" y2="200" />
    <line x1="260" y1="200" x2="200" y2="260" />
    <line x1="200" y1="260" x2="140" y2="200" />
    <line x1="140" y1="200" x2="200" y2="140" />
  </g>

  <!-- Animated particles -->
  <g fill="url(#heroGradient)" opacity="0.8">
    <circle cx="240" cy="110" r="3" />
    <circle cx="310" cy="180" r="3" />
    <circle cx="240" cy="310" r="3" />
    <circle cx="90" cy="250" r="3" />
  </g>
</svg>
